name p12_grf_mean_speed_1.6
datacolumns 13
datarows 63
range 0.0000000000 0.6200000000
endheader
time	grf_x_l_mean	grf_x_l_var	grf_y_l_mean	grf_y_l_var	grf_z_l_mean	grf_z_l_var	grf_x_r_mean	grf_x_r_var	grf_y_r_mean	grf_y_r_var	grf_z_r_mean	grf_z_r_var
0.0000000000	118.1698498450	1.0000000000	607.7347361693	1.0000000000	0.0000000000	0.0000000000	4.3113482772	1.0000000000	11.1514580154	1.0000000000	0.0000000000	0.0000000000
0.0100000000	128.8365950791	1.0000000000	590.1310369560	1.0000000000	0.0000000000	0.0000000000	4.8687659914	1.0000000000	43.0423022601	1.0000000000	0.0000000000	0.0000000000
0.0200000000	137.5692024212	1.0000000000	559.6991938803	1.0000000000	0.0000000000	0.0000000000	3.9205741936	1.0000000000	93.6644356288	1.0000000000	0.0000000000	0.0000000000
0.0300000000	142.5112790531	1.0000000000	516.2468745032	1.0000000000	0.0000000000	0.0000000000	-0.8079880740	1.0000000000	161.4677738779	1.0000000000	0.0000000000	0.0000000000
0.0400000000	141.9040672248	1.0000000000	461.0516303775	1.0000000000	0.0000000000	0.0000000000	-12.8223890605	1.0000000000	238.2477901623	1.0000000000	0.0000000000	0.0000000000
0.0500000000	134.2524496376	1.0000000000	396.3908108856	1.0000000000	0.0000000000	0.0000000000	-32.1676137473	1.0000000000	311.9137823277	1.0000000000	0.0000000000	0.0000000000
0.0600000000	119.2750039877	1.0000000000	325.5769656473	1.0000000000	0.0000000000	0.0000000000	-52.8740539634	1.0000000000	373.0890746926	1.0000000000	0.0000000000	0.0000000000
0.0700000000	99.0693615434	1.0000000000	253.7396053659	1.0000000000	0.0000000000	0.0000000000	-70.8436677593	1.0000000000	418.8489773738	1.0000000000	0.0000000000	0.0000000000
0.0800000000	75.8370222164	1.0000000000	186.5450516382	1.0000000000	0.0000000000	0.0000000000	-87.0367618550	1.0000000000	452.9847695327	1.0000000000	0.0000000000	0.0000000000
0.0900000000	52.3503621079	1.0000000000	128.4376543622	1.0000000000	0.0000000000	0.0000000000	-101.6454919499	1.0000000000	482.4297136456	1.0000000000	0.0000000000	0.0000000000
0.1000000000	32.7149531654	1.0000000000	81.9336451489	1.0000000000	0.0000000000	0.0000000000	-113.3208648370	1.0000000000	512.0688666796	1.0000000000	0.0000000000	0.0000000000
0.1100000000	17.8198250852	1.0000000000	47.6057808693	1.0000000000	0.0000000000	0.0000000000	-120.4355495244	1.0000000000	542.2397611152	1.0000000000	0.0000000000	0.0000000000
0.1200000000	7.6137627084	1.0000000000	24.1726625101	1.0000000000	0.0000000000	0.0000000000	-123.3091997199	1.0000000000	570.3037980093	1.0000000000	0.0000000000	0.0000000000
0.1300000000	1.9596612600	1.0000000000	9.4488928029	1.0000000000	0.0000000000	0.0000000000	-121.9379855853	1.0000000000	593.3742570149	1.0000000000	0.0000000000	0.0000000000
0.1400000000	-0.4111534101	1.0000000000	1.5282223187	1.0000000000	0.0000000000	0.0000000000	-115.8193515145	1.0000000000	609.6641083571	1.0000000000	0.0000000000	0.0000000000
0.1500000000	0.0000000000	1.0000000000	0.0000000000	1.0000000000	0.0000000000	0.0000000000	-106.7662467592	1.0000000000	618.0280212691	1.0000000000	0.0000000000	0.0000000000
0.1600000000	0.0000000000	1.0000000000	0.0000000000	1.0000000000	0.0000000000	0.0000000000	-96.5205011217	1.0000000000	617.5427466743	1.0000000000	0.0000000000	0.0000000000
0.1700000000	0.0000000000	1.0000000000	0.0000000000	1.0000000000	0.0000000000	0.0000000000	-85.4546970926	1.0000000000	607.9608740412	1.0000000000	0.0000000000	0.0000000000
0.1800000000	0.0000000000	1.0000000000	0.0000000000	1.0000000000	0.0000000000	0.0000000000	-73.9252199812	1.0000000000	590.0468601663	1.0000000000	0.0000000000	0.0000000000
0.1900000000	2.0069192426	1.0000000000	0.4276617765	1.0000000000	0.0000000000	0.0000000000	-63.4971363601	1.0000000000	565.4441121989	1.0000000000	0.0000000000	0.0000000000
0.2000000000	2.2081284784	1.0000000000	0.9957159016	1.0000000000	0.0000000000	0.0000000000	-54.5216020824	1.0000000000	535.8248101187	1.0000000000	0.0000000000	0.0000000000
0.2100000000	2.4503307235	1.0000000000	1.2450350244	1.0000000000	0.0000000000	0.0000000000	-46.3734356156	1.0000000000	502.8298737795	1.0000000000	0.0000000000	0.0000000000
0.2200000000	2.3439515740	1.0000000000	1.3242463448	1.0000000000	0.0000000000	0.0000000000	-39.2163840109	1.0000000000	468.4095547511	1.0000000000	0.0000000000	0.0000000000
0.2300000000	2.0592201189	1.0000000000	1.2303538391	1.0000000000	0.0000000000	0.0000000000	-33.1164066284	1.0000000000	434.2946312547	1.0000000000	0.0000000000	0.0000000000
0.2400000000	2.3302569419	1.0000000000	1.0039604494	1.0000000000	0.0000000000	0.0000000000	-27.6846609110	1.0000000000	401.9957230854	1.0000000000	0.0000000000	0.0000000000
0.2500000000	2.6509909898	1.0000000000	0.8103087391	1.0000000000	0.0000000000	0.0000000000	-22.2646237625	1.0000000000	372.8456823908	1.0000000000	0.0000000000	0.0000000000
0.2600000000	2.5878705781	1.0000000000	0.7169899805	1.0000000000	0.0000000000	0.0000000000	-17.3575736822	1.0000000000	347.6467800465	1.0000000000	0.0000000000	0.0000000000
0.2700000000	2.5027209411	1.0000000000	0.6774134337	1.0000000000	0.0000000000	0.0000000000	-13.1578503258	1.0000000000	326.5928753919	1.0000000000	0.0000000000	0.0000000000
0.2800000000	2.5182711118	1.0000000000	0.6480288971	1.0000000000	0.0000000000	0.0000000000	-9.2792386876	1.0000000000	309.6564284538	1.0000000000	0.0000000000	0.0000000000
0.2900000000	2.3238758041	1.0000000000	0.6184654791	1.0000000000	0.0000000000	0.0000000000	-6.0114082081	1.0000000000	296.9439258326	1.0000000000	0.0000000000	0.0000000000
0.3000000000	1.9950575075	1.0000000000	0.6134359363	1.0000000000	0.0000000000	0.0000000000	-3.3439066562	1.0000000000	288.5805226419	1.0000000000	0.0000000000	0.0000000000
0.3100000000	2.2066644943	1.0000000000	0.6491597585	1.0000000000	0.0000000000	0.0000000000	-1.0962749811	1.0000000000	284.6389447082	1.0000000000	0.0000000000	0.0000000000
0.3200000000	2.5489354917	1.0000000000	0.7167384253	1.0000000000	0.0000000000	0.0000000000	1.1451372199	1.0000000000	285.1630728911	1.0000000000	0.0000000000	0.0000000000
0.3300000000	2.4817301781	1.0000000000	0.7886176526	1.0000000000	0.0000000000	0.0000000000	3.6515749521	1.0000000000	289.7489679117	1.0000000000	0.0000000000	0.0000000000
0.3400000000	2.2971285231	1.0000000000	0.8683587552	1.0000000000	0.0000000000	0.0000000000	6.5603942330	1.0000000000	297.7696976389	1.0000000000	0.0000000000	0.0000000000
0.3500000000	2.1831806461	1.0000000000	0.9779836738	1.0000000000	0.0000000000	0.0000000000	9.9797554897	1.0000000000	309.1835136751	1.0000000000	0.0000000000	0.0000000000
0.3600000000	1.9268312101	1.0000000000	1.1120770048	1.0000000000	0.0000000000	0.0000000000	13.8385204880	1.0000000000	324.3072330990	1.0000000000	0.0000000000	0.0000000000
0.3700000000	1.5212330797	1.0000000000	1.2507241178	1.0000000000	0.0000000000	0.0000000000	18.2434586841	1.0000000000	343.0483904283	1.0000000000	0.0000000000	0.0000000000
0.3800000000	1.3785679826	1.0000000000	1.3705725534	1.0000000000	0.0000000000	0.0000000000	23.1036615869	1.0000000000	365.0362398235	1.0000000000	0.0000000000	0.0000000000
0.3900000000	1.4158704918	1.0000000000	1.4470858022	1.0000000000	0.0000000000	0.0000000000	28.2156929884	1.0000000000	390.2280678630	1.0000000000	0.0000000000	0.0000000000
0.4000000000	1.3175052796	1.0000000000	1.4147672292	1.0000000000	0.0000000000	0.0000000000	33.6558603087	1.0000000000	418.6942811881	1.0000000000	0.0000000000	0.0000000000
0.4100000000	1.1565673314	1.0000000000	1.1109339655	1.0000000000	0.0000000000	0.0000000000	39.7257790658	1.0000000000	449.9768383248	1.0000000000	0.0000000000	0.0000000000
0.4200000000	1.0468637178	1.0000000000	0.3206952766	1.0000000000	0.0000000000	0.0000000000	46.3475929958	1.0000000000	483.2752614823	1.0000000000	0.0000000000	0.0000000000
0.4300000000	0.0000000000	1.0000000000	0.0000000000	1.0000000000	0.0000000000	0.0000000000	53.5092683301	1.0000000000	517.6994559853	1.0000000000	0.0000000000	0.0000000000
0.4400000000	0.0000000000	1.0000000000	0.0000000000	1.0000000000	0.0000000000	0.0000000000	61.7626872730	1.0000000000	551.8549933195	1.0000000000	0.0000000000	0.0000000000
0.4500000000	0.0000000000	1.0000000000	0.0000000000	1.0000000000	0.0000000000	0.0000000000	71.2161505487	1.0000000000	583.6795437236	1.0000000000	0.0000000000	0.0000000000
0.4600000000	0.0000000000	1.0000000000	0.0000000000	1.0000000000	0.0000000000	0.0000000000	81.6110243738	1.0000000000	610.7962400045	1.0000000000	0.0000000000	0.0000000000
0.4700000000	0.0000000000	1.0000000000	0.0000000000	1.0000000000	0.0000000000	0.0000000000	92.9984264665	1.0000000000	630.8552055417	1.0000000000	0.0000000000	0.0000000000
0.4800000000	0.0000000000	1.0000000000	0.0000000000	1.0000000000	0.0000000000	0.0000000000	105.4315251729	1.0000000000	641.5238583798	1.0000000000	0.0000000000	0.0000000000
0.4900000000	7.8447395173	1.0000000000	10.4880010835	1.0000000000	0.0000000000	0.0000000000	118.1289413755	1.0000000000	640.6392604990	1.0000000000	0.0000000000	0.0000000000
0.5000000000	11.1697529921	1.0000000000	37.7310179223	1.0000000000	0.0000000000	0.0000000000	129.8369863217	1.0000000000	626.6712191320	1.0000000000	0.0000000000	0.0000000000
0.5100000000	13.2873067149	1.0000000000	81.2635716660	1.0000000000	0.0000000000	0.0000000000	139.5886485770	1.0000000000	598.8361852796	1.0000000000	0.0000000000	0.0000000000
0.5200000000	11.2661069007	1.0000000000	139.9788961259	1.0000000000	0.0000000000	0.0000000000	145.9595699621	1.0000000000	557.0285495749	1.0000000000	0.0000000000	0.0000000000
0.5300000000	1.2163530609	1.0000000000	207.6613410294	1.0000000000	0.0000000000	0.0000000000	146.8167630561	1.0000000000	502.1043391658	1.0000000000	0.0000000000	0.0000000000
0.5400000000	-17.0220982029	1.0000000000	275.3523522479	1.0000000000	0.0000000000	0.0000000000	140.6006718169	1.0000000000	436.4059835521	1.0000000000	0.0000000000	0.0000000000
0.5500000000	-37.9560699810	1.0000000000	334.8038357531	1.0000000000	0.0000000000	0.0000000000	127.8497316718	1.0000000000	364.0438334126	1.0000000000	0.0000000000	0.0000000000
0.5600000000	-56.2549034100	1.0000000000	380.5555816608	1.0000000000	0.0000000000	0.0000000000	110.1714373093	1.0000000000	290.1557657581	1.0000000000	0.0000000000	0.0000000000
0.5700000000	-70.9569232432	1.0000000000	412.1127077847	1.0000000000	0.0000000000	0.0000000000	88.9413824656	1.0000000000	219.4527904359	1.0000000000	0.0000000000	0.0000000000
0.5800000000	-82.7820058617	1.0000000000	434.3501216174	1.0000000000	0.0000000000	0.0000000000	66.7353490684	1.0000000000	155.8497911268	1.0000000000	0.0000000000	0.0000000000
0.5900000000	-91.6602908895	1.0000000000	454.3068224989	1.0000000000	0.0000000000	0.0000000000	46.7117238102	1.0000000000	102.7868989705	1.0000000000	0.0000000000	0.0000000000
0.6000000000	-97.9801527288	1.0000000000	476.6635437110	1.0000000000	0.0000000000	0.0000000000	30.0680043162	1.0000000000	62.4515884044	1.0000000000	0.0000000000	0.0000000000
0.6100000000	-102.2821357774	1.0000000000	501.6096781976	1.0000000000	0.0000000000	0.0000000000	16.9354726561	1.0000000000	34.1221985725	1.0000000000	0.0000000000	0.0000000000
0.6200000000	-103.9044738771	1.0000000000	526.6217104913	1.0000000000	0.0000000000	0.0000000000	8.1164114553	1.0000000000	14.9755906614	1.0000000000	0.0000000000	0.0000000000
